<svg width="409" height="114" viewBox="0 0 409 114" fill="none" xmlns="http://www.w3.org/2000/svg">
<g clip-path="url(#clip0_92:558)">
<path d="M49.8155 42.6404L50.7323 44.0241V42.3642V0.5H80.8056V111.957H51.1558V103.982V102.139L50.2243 103.729C48.3246 106.973 45.9012 109.409 42.9022 111.036C39.9009 112.665 36.2955 113.5 32.0118 113.5C13.4276 113.5 0.545776 96.8907 0.545776 73.9389C0.545776 51.9226 13.9385 34.3891 32.6756 34.3891C40.7735 34.3891 46.3503 37.4108 49.8155 42.6404ZM52.7036 74.4389H52.7581V73.9389C52.7581 67.2311 48.0589 62.0934 41.6943 62.0934C35.3195 62.0934 30.7793 67.2876 30.7793 73.9389C30.7793 80.5953 35.3127 85.6937 41.6943 85.6937C47.909 85.6937 52.479 80.8979 52.7036 74.4389Z" stroke="#409ED8" stroke-opacity="0.3"/>
<path d="M134.727 44.4537L135.666 44.2135V35.9321H166.06V111.957H135.529V103.676V101.789L134.594 103.428C130.811 110.065 124.771 113.5 116.224 113.5C97.7074 113.5 84.7126 96.8889 84.7126 73.9389C84.7126 51.9228 98.1166 34.3891 116.854 34.3891C125.534 34.3891 131.269 38.1393 134.727 44.4537ZM136.936 73.9389C136.936 67.2311 132.237 62.0933 125.873 62.0933C119.498 62.0933 114.958 67.2876 114.958 73.9389C114.958 80.5953 119.491 85.6936 125.873 85.6936C132.244 85.6936 136.936 80.6518 136.936 73.9389Z" stroke="#409ED8" stroke-opacity="0.3"/>
<path d="M170.161 61.2268V35.9321H241.116V60.8113H211.779H210.421L211.455 61.6919L241.117 86.9564L241.139 111.957H170.184V86.919H199.19H200.556L199.512 86.0371L170.161 61.2268Z" stroke="#409ED8" stroke-opacity="0.3"/>
<path d="M324.013 73.5985V83.1166H272.094H271.261L271.653 83.8519C272.812 86.0238 274.563 87.8279 276.707 89.0583C278.845 90.2854 281.287 90.8924 283.755 90.8108C286.081 90.9063 288.395 90.4346 290.495 89.4368C292.48 88.4934 294.216 87.1068 295.568 85.3877L319.95 95.9161C316.321 100.614 311.934 104.945 306.178 108.138C300.22 111.444 292.768 113.545 283.128 113.545C269.96 113.523 259.842 109.198 253.016 102.12C246.187 95.0388 242.608 85.1558 242.608 73.9389C242.608 52.4938 258.86 34.3891 283.311 34.3891C307.29 34.3891 324.013 50.8239 324.013 73.5985ZM294.63 63.9669H295.491L295.064 63.2188C292.676 59.0414 288.736 56.9561 283.605 56.9538C281.242 56.8759 278.9 57.4098 276.808 58.5032C274.714 59.5979 272.944 61.2156 271.674 63.197L272.094 63.4669V63.9669H294.63Z" stroke="#409ED8" stroke-opacity="0.3"/>
<path d="M377.51 42.641L378.427 44.0196V42.3642V0.5H408.5V111.957H378.885V103.982V102.139L377.953 103.729C376.053 106.973 373.63 109.409 370.631 111.036C367.63 112.665 364.024 113.5 359.741 113.5C341.167 113.5 328.229 96.8896 328.229 73.9389C328.229 51.9226 341.622 34.3891 360.359 34.3891C368.456 34.3891 374.034 37.4107 377.51 42.641ZM380.441 73.9389C380.441 67.2311 375.742 62.0934 369.377 62.0934C363.003 62.0934 358.462 67.2876 358.462 73.9389C358.462 80.5953 362.996 85.6937 369.377 85.6937C375.749 85.6937 380.441 80.6518 380.441 73.9389Z" stroke="#409ED8" stroke-opacity="0.3"/>
</g>
<defs>
<clipPath id="clip0_92:558">
<rect width="409" height="114" fill="white"/>
</clipPath>
</defs>
</svg>
