<svg width="83" height="96" viewBox="0 0 83 96" fill="none" xmlns="http://www.w3.org/2000/svg">
<path d="M49.9385 35.0606C50.9605 33.5318 51.4715 31.639 51.4715 29.6734C51.4715 24.1406 46.9455 19.627 41.3975 19.627C35.8495 19.627 31.3235 24.1406 31.3235 29.6734C31.3235 31.639 31.9075 33.459 32.8565 35.0606C26.3595 35.4246 21.1765 40.8118 21.1765 47.4366V66.583C21.1765 70.0046 23.9505 72.771 27.3085 72.771C27.8195 72.771 28.2575 72.6982 28.6955 72.6254V92.7182C28.6955 94.0286 29.7905 95.1206 31.1045 95.1206C32.4185 95.1206 33.5135 94.0286 33.5135 92.7182V66.6558V50.1302C33.5135 48.8198 32.4185 47.7278 31.1045 47.7278C29.7905 47.7278 28.6955 48.8198 28.6955 50.1302V66.6558C28.6955 67.4566 28.0385 68.1118 27.3085 68.1118C26.5785 68.1118 25.9215 67.4566 25.9215 66.6558V47.4366C25.9215 43.2142 29.3525 39.7926 33.5135 39.7926H49.2815C53.4425 39.7926 56.8735 43.2142 56.8735 47.4366V66.3646C56.8735 67.311 56.1435 68.039 55.2675 68.039C54.3915 68.039 53.6615 67.311 53.6615 66.3646V50.1302C53.6615 48.8198 52.5665 47.7278 51.2525 47.7278C49.9385 47.7278 48.8435 48.8198 48.8435 50.1302V66.3646V92.6454C48.8435 93.9558 49.9385 95.0478 51.2525 95.0478C52.5665 95.0478 53.6615 93.9558 53.6615 92.6454V72.5526C54.1725 72.6982 54.7565 72.771 55.2675 72.771C58.7715 72.771 61.6185 69.9318 61.6185 66.3646V47.4366C61.6185 40.8118 56.4355 35.4246 49.9385 35.0606ZM36.0685 29.7462C36.0685 26.8342 38.4775 24.4318 41.3975 24.4318C44.3175 24.4318 46.7265 26.8342 46.7265 29.7462C46.7265 32.6582 44.3175 35.0606 41.3975 35.0606C38.4775 35.0606 36.0685 32.6582 36.0685 29.7462Z" fill="#20448D"/>
<path d="M30.5205 17.5157C35.1925 17.5157 39.0615 13.7301 39.0615 8.99807C39.0615 4.26607 35.2655 0.480469 30.5205 0.480469C25.7755 0.480469 21.9795 4.26607 21.9795 8.99807C21.9795 13.7301 25.7755 17.5157 30.5205 17.5157ZM30.5205 5.28527C32.5645 5.28527 34.3165 6.95967 34.3165 9.07087C34.3165 11.1821 32.6375 12.8565 30.5205 12.8565C28.4035 12.8565 26.7245 11.1821 26.7245 9.07087C26.7245 6.95967 28.4035 5.28527 30.5205 5.28527Z" fill="#20448D"/>
<path d="M52.2744 17.5157C56.9464 17.5157 60.8154 13.7301 60.8154 8.99807C60.8154 4.26607 57.0194 0.480469 52.2744 0.480469C47.5294 0.480469 43.7334 4.26607 43.7334 8.99807C43.7334 13.7301 47.6024 17.5157 52.2744 17.5157ZM52.2744 5.28527C54.3184 5.28527 56.0704 6.95967 56.0704 9.07087C56.0704 11.1821 54.3914 12.8565 52.2744 12.8565C50.1574 12.8565 48.4784 11.1821 48.4784 9.07087C48.4784 6.95967 50.2304 5.28527 52.2744 5.28527Z" fill="#20448D"/>
<path d="M11.1755 35.8608H17.7455C22.6365 35.8608 26.6515 31.8569 26.6515 26.9793C26.6515 22.1017 22.6365 18.0977 17.7455 18.0977C12.8545 18.0977 8.83946 22.1017 8.83946 26.9793C8.83946 28.5081 9.20446 29.964 9.93446 31.2016C4.60546 31.8568 0.444458 36.3705 0.444458 41.9032V57.9192C0.444458 60.9768 2.92646 63.452 5.99246 63.452C6.28446 63.452 6.50346 63.3792 6.79546 63.3792V76.3376C6.79546 77.648 7.89046 78.74 9.20446 78.74C10.5185 78.74 11.6135 77.648 11.6135 76.3376V57.9192V44.0872C11.6135 42.7768 10.5185 41.6848 9.20446 41.6848C7.89046 41.6848 6.79546 42.7768 6.79546 44.0872V57.9192C6.79546 58.356 6.43046 58.72 5.99246 58.72C5.55446 58.72 5.18946 58.356 5.18946 57.9192V41.9032C5.26246 38.5544 7.89046 35.8608 11.1755 35.8608ZM17.7455 22.8297C20.0085 22.8297 21.9065 24.7225 21.9065 26.9793C21.9065 29.2361 20.0085 31.1288 17.7455 31.1288C15.4825 31.1288 13.5845 29.2361 13.5845 26.9793C13.6575 24.6497 15.4825 22.8297 17.7455 22.8297Z" fill="#20448D"/>
<path d="M72.8604 31.2016C73.5174 29.964 73.9554 28.5081 73.9554 26.9793C73.9554 22.1017 69.9404 18.0977 65.0494 18.0977C60.1584 18.0977 56.1434 22.1017 56.1434 26.9793C56.1434 31.8569 60.1584 35.8608 65.0494 35.8608H71.6194C74.9044 35.8608 77.6054 38.5544 77.6054 41.9032V57.9192C77.6054 58.356 77.2404 58.72 76.8024 58.72C76.3644 58.72 75.9994 58.356 75.9994 57.9192V44.0872C75.9994 42.7768 74.9044 41.6848 73.5904 41.6848C72.2764 41.6848 71.1814 42.7768 71.1814 44.0872V57.9192V76.3376C71.1814 77.648 72.2764 78.74 73.5904 78.74C74.9044 78.74 75.9994 77.648 75.9994 76.3376V63.3792C76.2914 63.452 76.5104 63.452 76.8024 63.452C79.8684 63.452 82.3504 60.9768 82.3504 57.9192V41.9032C82.2774 36.3705 78.1894 31.784 72.8604 31.2016ZM60.8884 26.9793C60.8884 24.7225 62.7864 22.8297 65.0494 22.8297C67.3124 22.8297 69.2104 24.7225 69.2104 26.9793C69.2104 29.2361 67.3124 31.1288 65.0494 31.1288C62.7864 31.1288 60.8884 29.2361 60.8884 26.9793Z" fill="#20448D"/>
</svg>
