<svg width="70" height="20" viewBox="0 0 70 20" fill="none" xmlns="http://www.w3.org/2000/svg">
<g clip-path="url(#clip0_7:357)">
<path d="M0.0078125 12.9717C0.0078125 9.08041 2.32116 5.94546 5.59238 5.94546C7.00272 5.94546 7.98604 6.48686 8.59719 7.43232V0H13.9154V19.7293H8.66967V18.2424C8.00563 19.4048 6.96746 20 5.47876 20C2.23302 20 0.0078125 17.0263 0.0078125 12.9717ZM8.9439 12.9717C8.9439 11.8372 8.17213 10.9813 7.13592 10.9813C6.09971 10.9813 5.3534 11.8451 5.3534 12.9717C5.3534 14.0983 6.09775 14.9463 7.13592 14.9463C8.17409 14.9463 8.93606 14.1063 8.93606 12.9717H8.9439Z" fill="white"/>
<path d="M14.413 12.9716C14.413 9.08027 16.7283 5.94531 19.9995 5.94531C21.5156 5.94531 22.5264 6.62007 23.1336 7.75662V6.21602H28.5066V19.7291H23.1101V18.1885C22.446 19.3828 21.3824 19.9998 19.8918 19.9998C16.6578 19.9998 14.413 17.0261 14.413 12.9716ZM23.351 12.9716C23.351 11.837 22.5792 10.9811 21.543 10.9811C20.5068 10.9811 19.7605 11.845 19.7605 12.9716C19.7605 14.0982 20.5049 14.9461 21.543 14.9461C22.5812 14.9461 23.351 14.1061 23.351 12.9716Z" fill="white"/>
<path d="M41.3563 19.7294H29.0413V15.1614H34.0911L29.0374 10.7824V6.21631H41.3524V10.7565H36.2458L41.3524 15.2151L41.3563 19.7294Z" fill="white"/>
<path d="M41.4366 12.9716C41.4366 9.16188 44.2554 5.94531 48.4884 5.94531C52.6371 5.94531 55.5401 8.8653 55.5401 12.9119V14.6694H46.5687C46.7594 15.0359 47.0477 15.3403 47.4007 15.548C47.7537 15.7557 48.1571 15.8582 48.5647 15.8438C48.95 15.8605 49.3335 15.7807 49.6812 15.6113C50.029 15.4419 50.3304 15.1882 50.5588 14.8725L54.8937 16.7913C53.6165 18.521 51.7831 20.0078 48.457 20.0078C43.9106 19.9999 41.4366 16.9445 41.4366 12.9716ZM46.5687 11.1344H50.4256C50.0339 10.4318 49.3894 10.0795 48.5373 10.0795C48.1472 10.066 47.7604 10.1563 47.4152 10.3413C47.0699 10.5263 46.7781 10.7997 46.5687 11.1344V11.1344Z" fill="white"/>
<path d="M56.0905 12.9717C56.0905 9.08041 58.4038 5.94546 61.675 5.94546C63.0854 5.94546 64.0687 6.48686 64.6818 7.43232V0H70V19.7293H64.7601V18.2424C64.0961 19.4048 63.0579 20 61.5692 20C58.3255 20 56.0905 17.0263 56.0905 12.9717ZM65.0265 12.9717C65.0265 11.8372 64.2548 10.9813 63.2186 10.9813C62.1824 10.9813 61.436 11.8451 61.436 12.9717C61.436 14.0983 62.1804 14.9463 63.2186 14.9463C64.2567 14.9463 65.0265 14.1063 65.0265 12.9717Z" fill="white"/>
</g>
<defs>
<clipPath id="clip0_7:357">
<rect width="70" height="20" fill="white"/>
</clipPath>
</defs>
</svg>
