<svg width="90" height="95" viewBox="0 0 90 95" fill="none" xmlns="http://www.w3.org/2000/svg">
<path d="M60.4753 88.4429L85.3001 74.4683V51.6656L80.2478 54.2353V63.519C80.2478 64.4881 79.6694 65.3215 78.8404 65.6862L69.7861 70.6604C68.2183 71.5209 66.3308 70.357 66.3308 68.5911H66.3227V61.32L60.4753 64.2957V88.4429ZM75.5573 56.622L71.0143 58.9332V64.6191L75.5573 62.1238V56.622ZM54.388 36.4811L77.8826 50.1558L82.5872 47.762L58.109 34.4555L54.388 36.4811ZM63.8779 57.2807L40.7134 43.9258L33.6695 47.7597L58.1301 60.2045L63.8779 57.2807ZM39.532 39.2042C39.5988 39.1641 39.6678 39.1263 39.7381 39.0933L55.7626 30.369V18.4235H4.6905V70.3605H26.2684V47.8305H26.2731C26.2743 46.99 26.7204 46.1779 27.506 45.7518L39.532 39.2042ZM45.569 41.2817L68.8927 54.7287L72.8983 52.6913L49.5617 39.1086L45.569 41.2817ZM60.4543 30.3678L88.616 45.6775C89.4274 46.0493 89.9906 46.8732 89.9906 47.8305V75.8482H89.9836C89.9824 76.6744 89.5492 77.4771 88.7811 77.9079L59.4356 94.4275C58.5633 94.9669 57.6957 94.9669 56.8234 94.4275L52.7183 92.1163H7.66216C3.44352 92.1163 0 88.6459 0 84.3918V7.72446C0 3.47624 3.45055 0 7.66216 0H52.7909C57.0107 0 60.4543 3.47152 60.4543 7.72446V30.3678ZM55.7837 64.2957L30.9601 51.6656V74.4683L55.7837 88.4429V64.2957ZM26.2684 75.0904H4.6905V84.3918C4.6905 86.0337 6.03348 87.3876 7.66216 87.3876H44.3174L27.6454 78.0012C26.2614 77.2965 26.2684 76.3003 26.2684 75.0904ZM55.7626 13.6949V7.72446C55.7626 6.08254 54.4208 4.72981 52.7909 4.72981H7.66216C6.02646 4.72981 4.6905 6.07782 4.6905 7.72446V13.6949H55.7626Z" fill="#20448D"/>
</svg>
